<mxfile host="app.diagrams.net" agent="Mozilla/5.0 (Windows NT 10.0; Win64; x64) AppleWebKit/537.36 (KHTML, like Gecko) Chrome/131.0.0.0 Safari/537.36 Edg/131.0.0.0" version="24.8.6">
  <diagram name="第 1 页" id="lHpnIe87h8buu5OivIBk">
    <mxGraphModel dx="1613" dy="1168" grid="0" gridSize="10" guides="1" tooltips="1" connect="1" arrows="1" fold="1" page="0" pageScale="1" pageWidth="827" pageHeight="1169" background="#FFFFFF" math="0" shadow="0">
      <root>
        <mxCell id="0" />
        <mxCell id="1" parent="0" />
        <mxCell id="e0GAuca3ztb4EOXdJ4iy-15" style="edgeStyle=orthogonalEdgeStyle;rounded=0;orthogonalLoop=1;jettySize=auto;html=1;entryX=0.5;entryY=1;entryDx=0;entryDy=0;" parent="1" source="e0GAuca3ztb4EOXdJ4iy-2" target="e0GAuca3ztb4EOXdJ4iy-8" edge="1">
          <mxGeometry relative="1" as="geometry" />
        </mxCell>
        <mxCell id="e0GAuca3ztb4EOXdJ4iy-16" style="edgeStyle=orthogonalEdgeStyle;rounded=0;orthogonalLoop=1;jettySize=auto;html=1;entryX=1;entryY=0.5;entryDx=0;entryDy=0;" parent="1" source="e0GAuca3ztb4EOXdJ4iy-2" target="e0GAuca3ztb4EOXdJ4iy-13" edge="1">
          <mxGeometry relative="1" as="geometry" />
        </mxCell>
        <mxCell id="e0GAuca3ztb4EOXdJ4iy-17" style="edgeStyle=orthogonalEdgeStyle;rounded=0;orthogonalLoop=1;jettySize=auto;html=1;entryX=0.5;entryY=0;entryDx=0;entryDy=0;" parent="1" source="e0GAuca3ztb4EOXdJ4iy-2" target="e0GAuca3ztb4EOXdJ4iy-9" edge="1">
          <mxGeometry relative="1" as="geometry" />
        </mxCell>
        <mxCell id="e0GAuca3ztb4EOXdJ4iy-18" style="edgeStyle=orthogonalEdgeStyle;rounded=0;orthogonalLoop=1;jettySize=auto;html=1;entryX=0;entryY=0.5;entryDx=0;entryDy=0;" parent="1" source="e0GAuca3ztb4EOXdJ4iy-2" target="e0GAuca3ztb4EOXdJ4iy-11" edge="1">
          <mxGeometry relative="1" as="geometry" />
        </mxCell>
        <mxCell id="e0GAuca3ztb4EOXdJ4iy-19" style="edgeStyle=orthogonalEdgeStyle;rounded=0;orthogonalLoop=1;jettySize=auto;html=1;entryX=1;entryY=0.5;entryDx=0;entryDy=0;" parent="1" source="e0GAuca3ztb4EOXdJ4iy-2" target="e0GAuca3ztb4EOXdJ4iy-12" edge="1">
          <mxGeometry relative="1" as="geometry" />
        </mxCell>
        <mxCell id="e0GAuca3ztb4EOXdJ4iy-20" style="edgeStyle=orthogonalEdgeStyle;rounded=0;orthogonalLoop=1;jettySize=auto;html=1;entryX=1;entryY=0.5;entryDx=0;entryDy=0;" parent="1" source="e0GAuca3ztb4EOXdJ4iy-2" target="e0GAuca3ztb4EOXdJ4iy-14" edge="1">
          <mxGeometry relative="1" as="geometry" />
        </mxCell>
        <mxCell id="e0GAuca3ztb4EOXdJ4iy-2" value="系统用户" style="rounded=0;whiteSpace=wrap;html=1;" parent="1" vertex="1">
          <mxGeometry x="340" y="290" width="120" height="60" as="geometry" />
        </mxCell>
        <mxCell id="e0GAuca3ztb4EOXdJ4iy-3" value="资源共享领域" style="rounded=0;whiteSpace=wrap;html=1;" parent="1" vertex="1">
          <mxGeometry x="340" y="-8" width="120" height="60" as="geometry" />
        </mxCell>
        <mxCell id="e0GAuca3ztb4EOXdJ4iy-4" value="用户互动领域" style="rounded=0;whiteSpace=wrap;html=1;" parent="1" vertex="1">
          <mxGeometry x="-42" y="290" width="120" height="60" as="geometry" />
        </mxCell>
        <mxCell id="e0GAuca3ztb4EOXdJ4iy-5" value="交易安全领域" style="rounded=0;whiteSpace=wrap;html=1;" parent="1" vertex="1">
          <mxGeometry x="340" y="550" width="120" height="60" as="geometry" />
        </mxCell>
        <mxCell id="e0GAuca3ztb4EOXdJ4iy-6" value="隐私和交易安全领域" style="rounded=0;whiteSpace=wrap;html=1;" parent="1" vertex="1">
          <mxGeometry x="730" y="290" width="120" height="60" as="geometry" />
        </mxCell>
        <mxCell id="e0GAuca3ztb4EOXdJ4iy-26" style="edgeStyle=orthogonalEdgeStyle;rounded=0;orthogonalLoop=1;jettySize=auto;html=1;entryX=0.5;entryY=1;entryDx=0;entryDy=0;dashed=1;" parent="1" source="e0GAuca3ztb4EOXdJ4iy-8" target="e0GAuca3ztb4EOXdJ4iy-3" edge="1">
          <mxGeometry relative="1" as="geometry" />
        </mxCell>
        <mxCell id="e0GAuca3ztb4EOXdJ4iy-8" value="查看资源信息" style="ellipse;whiteSpace=wrap;html=1;align=center;dashed=1;" parent="1" vertex="1">
          <mxGeometry x="341" y="145" width="118" height="50" as="geometry" />
        </mxCell>
        <mxCell id="e0GAuca3ztb4EOXdJ4iy-28" style="edgeStyle=orthogonalEdgeStyle;rounded=0;orthogonalLoop=1;jettySize=auto;html=1;dashed=1;" parent="1" source="e0GAuca3ztb4EOXdJ4iy-9" target="e0GAuca3ztb4EOXdJ4iy-5" edge="1">
          <mxGeometry relative="1" as="geometry" />
        </mxCell>
        <mxCell id="e0GAuca3ztb4EOXdJ4iy-9" value="系统保障交易安全" style="ellipse;whiteSpace=wrap;html=1;align=center;dashed=1;" parent="1" vertex="1">
          <mxGeometry x="339" y="428" width="122" height="55" as="geometry" />
        </mxCell>
        <mxCell id="e0GAuca3ztb4EOXdJ4iy-27" style="edgeStyle=orthogonalEdgeStyle;rounded=0;orthogonalLoop=1;jettySize=auto;html=1;entryX=0;entryY=0.5;entryDx=0;entryDy=0;dashed=1;" parent="1" source="e0GAuca3ztb4EOXdJ4iy-11" target="e0GAuca3ztb4EOXdJ4iy-6" edge="1">
          <mxGeometry relative="1" as="geometry" />
        </mxCell>
        <mxCell id="e0GAuca3ztb4EOXdJ4iy-11" value="用户隐私得到加密和保护" style="ellipse;whiteSpace=wrap;html=1;align=center;dashed=1;" parent="1" vertex="1">
          <mxGeometry x="535" y="294" width="121" height="52" as="geometry" />
        </mxCell>
        <mxCell id="e0GAuca3ztb4EOXdJ4iy-22" style="edgeStyle=orthogonalEdgeStyle;rounded=0;orthogonalLoop=1;jettySize=auto;html=1;dashed=1;" parent="1" source="e0GAuca3ztb4EOXdJ4iy-12" target="e0GAuca3ztb4EOXdJ4iy-4" edge="1">
          <mxGeometry relative="1" as="geometry" />
        </mxCell>
        <mxCell id="e0GAuca3ztb4EOXdJ4iy-12" value="询问商品情况" style="ellipse;whiteSpace=wrap;html=1;align=center;dashed=1;" parent="1" vertex="1">
          <mxGeometry x="161" y="219" width="100" height="40" as="geometry" />
        </mxCell>
        <mxCell id="e0GAuca3ztb4EOXdJ4iy-24" style="edgeStyle=orthogonalEdgeStyle;rounded=0;orthogonalLoop=1;jettySize=auto;html=1;entryX=1;entryY=0.5;entryDx=0;entryDy=0;dashed=1;" parent="1" source="e0GAuca3ztb4EOXdJ4iy-13" target="e0GAuca3ztb4EOXdJ4iy-4" edge="1">
          <mxGeometry relative="1" as="geometry" />
        </mxCell>
        <mxCell id="e0GAuca3ztb4EOXdJ4iy-13" value="评价卖家服务" style="ellipse;whiteSpace=wrap;html=1;align=center;dashed=1;" parent="1" vertex="1">
          <mxGeometry x="159" y="300" width="100" height="40" as="geometry" />
        </mxCell>
        <mxCell id="e0GAuca3ztb4EOXdJ4iy-25" style="edgeStyle=orthogonalEdgeStyle;rounded=0;orthogonalLoop=1;jettySize=auto;html=1;entryX=0.5;entryY=1;entryDx=0;entryDy=0;dashed=1;" parent="1" source="e0GAuca3ztb4EOXdJ4iy-14" target="e0GAuca3ztb4EOXdJ4iy-4" edge="1">
          <mxGeometry relative="1" as="geometry" />
        </mxCell>
        <mxCell id="e0GAuca3ztb4EOXdJ4iy-14" value="进行社区互动" style="ellipse;whiteSpace=wrap;html=1;align=center;dashed=1;" parent="1" vertex="1">
          <mxGeometry x="161" y="375" width="100" height="40" as="geometry" />
        </mxCell>
        <mxCell id="e0GAuca3ztb4EOXdJ4iy-29" value="信息交流" style="ellipse;whiteSpace=wrap;html=1;align=center;dashed=1;" parent="1" vertex="1">
          <mxGeometry x="-49" y="2" width="125" height="40" as="geometry" />
        </mxCell>
        <mxCell id="e0GAuca3ztb4EOXdJ4iy-30" value="" style="endArrow=none;dashed=1;html=1;dashPattern=1 3;strokeWidth=2;rounded=0;exitX=1;exitY=0.5;exitDx=0;exitDy=0;" parent="1" source="e0GAuca3ztb4EOXdJ4iy-29" edge="1">
          <mxGeometry width="50" height="50" relative="1" as="geometry">
            <mxPoint x="293" y="73" as="sourcePoint" />
            <mxPoint x="343" y="23" as="targetPoint" />
          </mxGeometry>
        </mxCell>
        <mxCell id="e0GAuca3ztb4EOXdJ4iy-31" value="" style="endArrow=none;dashed=1;html=1;dashPattern=1 3;strokeWidth=2;rounded=0;exitX=0.317;exitY=0;exitDx=0;exitDy=0;exitPerimeter=0;" parent="1" source="e0GAuca3ztb4EOXdJ4iy-4" edge="1">
          <mxGeometry width="50" height="50" relative="1" as="geometry">
            <mxPoint x="6" y="186.17" as="sourcePoint" />
            <mxPoint x="-9" y="41" as="targetPoint" />
          </mxGeometry>
        </mxCell>
      </root>
    </mxGraphModel>
  </diagram>
</mxfile>
